<mxfile host="app.diagrams.net" agent="Mozilla/5.0 (Windows NT 10.0; Win64; x64) AppleWebKit/537.36 (KHTML, like Gecko) Chrome/140.0.0.0 Safari/537.36" version="28.2.5" pages="2">
  <diagram name="Page-1" id="Qnb-MdqNoxR_H-0la0g4">
    <mxGraphModel dx="1507" dy="620" grid="1" gridSize="10" guides="1" tooltips="1" connect="1" arrows="1" fold="1" page="1" pageScale="1" pageWidth="827" pageHeight="1169" math="0" shadow="0">
      <root>
        <mxCell id="0" />
        <mxCell id="1" parent="0" />
        <mxCell id="start" value="Start" style="ellipse;whiteSpace=wrap;html=1;" parent="1" vertex="1">
          <mxGeometry x="200" y="20" width="100" height="40" as="geometry" />
        </mxCell>
        <mxCell id="p1" value="ประกาศ arr[], size, i, j, temp, pos=-1" style="rounded=0;whiteSpace=wrap;html=1;" parent="1" vertex="1">
          <mxGeometry x="160" y="80" width="180" height="50" as="geometry" />
        </mxCell>
        <mxCell id="io1" value="แสดง Old Series" style="shape=parallelogram;whiteSpace=wrap;html=1;" parent="1" vertex="1">
          <mxGeometry x="160" y="150" width="180" height="50" as="geometry" />
        </mxCell>
        <mxCell id="p2" value="เริ่ม Bubble Sort: for i = 0 to size-2" style="rounded=0;whiteSpace=wrap;html=1;" parent="1" vertex="1">
          <mxGeometry x="160" y="220" width="180" height="50" as="geometry" />
        </mxCell>
        <mxCell id="p3" value="for j = 0 to size-2-i" style="rounded=0;whiteSpace=wrap;html=1;" parent="1" vertex="1">
          <mxGeometry x="160" y="290" width="180" height="50" as="geometry" />
        </mxCell>
        <mxCell id="c1" value="arr[j] &gt; arr[j+1] ?" style="rhombus;whiteSpace=wrap;html=1;" parent="1" vertex="1">
          <mxGeometry x="160" y="380" width="180" height="60" as="geometry" />
        </mxCell>
        <mxCell id="p4" value="สลับ arr[j] กับ arr[j+1]" style="rounded=0;whiteSpace=wrap;html=1;" parent="1" vertex="1">
          <mxGeometry x="360" y="360" width="180" height="50" as="geometry" />
        </mxCell>
        <mxCell id="io2" value="แสดง New Series" style="shape=parallelogram;whiteSpace=wrap;html=1;" parent="1" vertex="1">
          <mxGeometry x="160" y="450" width="180" height="50" as="geometry" />
        </mxCell>
        <mxCell id="p5" value="หา pos ของ 32: for i = 0 to size-1" style="rounded=0;whiteSpace=wrap;html=1;" parent="1" vertex="1">
          <mxGeometry x="160" y="520" width="180" height="50" as="geometry" />
        </mxCell>
        <mxCell id="c2" value="arr[i] == 32 ?" style="rhombus;whiteSpace=wrap;html=1;" parent="1" vertex="1">
          <mxGeometry x="160" y="590" width="180" height="60" as="geometry" />
        </mxCell>
        <mxCell id="p6" value="pos = i; break" style="rounded=0;whiteSpace=wrap;html=1;" parent="1" vertex="1">
          <mxGeometry x="360" y="590" width="180" height="50" as="geometry" />
        </mxCell>
        <mxCell id="io3" value="แสดง Pos of 32 : pos" style="shape=parallelogram;whiteSpace=wrap;html=1;" parent="1" vertex="1">
          <mxGeometry x="160" y="680" width="180" height="50" as="geometry" />
        </mxCell>
        <mxCell id="stop" value="Stop" style="ellipse;whiteSpace=wrap;html=1;" parent="1" vertex="1">
          <mxGeometry x="200" y="750" width="100" height="40" as="geometry" />
        </mxCell>
        <mxCell id="e1" style="edgeStyle=orthogonalEdgeStyle;rounded=0;" parent="1" source="start" target="p1" edge="1">
          <mxGeometry relative="1" as="geometry" />
        </mxCell>
        <mxCell id="e2" style="edgeStyle=orthogonalEdgeStyle;rounded=0;" parent="1" source="p1" target="io1" edge="1">
          <mxGeometry relative="1" as="geometry" />
        </mxCell>
        <mxCell id="e3" style="edgeStyle=orthogonalEdgeStyle;rounded=0;" parent="1" source="io1" target="p2" edge="1">
          <mxGeometry relative="1" as="geometry" />
        </mxCell>
        <mxCell id="e4" style="edgeStyle=orthogonalEdgeStyle;rounded=0;" parent="1" source="p2" target="p3" edge="1">
          <mxGeometry relative="1" as="geometry" />
        </mxCell>
        <mxCell id="e5" style="edgeStyle=orthogonalEdgeStyle;rounded=0;" parent="1" source="p3" target="c1" edge="1">
          <mxGeometry relative="1" as="geometry" />
        </mxCell>
        <mxCell id="e6" value="Yes" style="edgeStyle=orthogonalEdgeStyle;rounded=0;" parent="1" source="c1" target="p4" edge="1">
          <mxGeometry relative="1" as="geometry" />
        </mxCell>
        <mxCell id="e7" value="No" style="edgeStyle=orthogonalEdgeStyle;rounded=0;" parent="1" source="c1" target="p3" edge="1">
          <mxGeometry relative="1" as="geometry" />
        </mxCell>
        <mxCell id="e8" style="edgeStyle=orthogonalEdgeStyle;rounded=0;" parent="1" source="p4" target="p3" edge="1">
          <mxGeometry relative="1" as="geometry">
            <Array as="points">
              <mxPoint x="450" y="350" />
              <mxPoint x="250" y="350" />
            </Array>
          </mxGeometry>
        </mxCell>
        <mxCell id="e9" style="edgeStyle=orthogonalEdgeStyle;rounded=0;entryX=0.111;entryY=0.507;entryDx=0;entryDy=0;entryPerimeter=0;" parent="1" source="p3" target="io2" edge="1">
          <mxGeometry relative="1" as="geometry">
            <Array as="points">
              <mxPoint x="120" y="315" />
              <mxPoint x="120" y="475" />
            </Array>
          </mxGeometry>
        </mxCell>
        <mxCell id="e10" style="edgeStyle=orthogonalEdgeStyle;rounded=0;" parent="1" source="io2" target="p5" edge="1">
          <mxGeometry relative="1" as="geometry" />
        </mxCell>
        <mxCell id="e11" style="edgeStyle=orthogonalEdgeStyle;rounded=0;" parent="1" source="p5" target="c2" edge="1">
          <mxGeometry relative="1" as="geometry" />
        </mxCell>
        <mxCell id="e12" value="Yes" style="edgeStyle=orthogonalEdgeStyle;rounded=0;" parent="1" source="c2" target="p6" edge="1">
          <mxGeometry relative="1" as="geometry" />
        </mxCell>
        <mxCell id="e13" value="No" style="edgeStyle=orthogonalEdgeStyle;rounded=0;" parent="1" source="c2" target="p5" edge="1">
          <mxGeometry relative="1" as="geometry" />
        </mxCell>
        <mxCell id="e14" style="edgeStyle=orthogonalEdgeStyle;rounded=0;" parent="1" source="p6" target="io3" edge="1">
          <mxGeometry relative="1" as="geometry">
            <Array as="points">
              <mxPoint x="450" y="510" />
              <mxPoint x="100" y="510" />
              <mxPoint x="100" y="705" />
            </Array>
          </mxGeometry>
        </mxCell>
        <mxCell id="e15" style="edgeStyle=orthogonalEdgeStyle;rounded=0;" parent="1" source="io3" target="stop" edge="1">
          <mxGeometry relative="1" as="geometry" />
        </mxCell>
      </root>
    </mxGraphModel>
  </diagram>
  <diagram id="q-CIciFuJYpiS8QPMkeO" name="Page-2">
    <mxGraphModel dx="1042" dy="527" grid="1" gridSize="10" guides="1" tooltips="1" connect="1" arrows="1" fold="1" page="1" pageScale="1" pageWidth="827" pageHeight="1169" math="0" shadow="0">
      <root>
        <mxCell id="0" />
        <mxCell id="1" parent="0" />
      </root>
    </mxGraphModel>
  </diagram>
</mxfile>
